<svg width="270" height="74" viewBox="0 0 270 74" fill="none" xmlns="http://www.w3.org/2000/svg">
<path d="M80.0223 36.1121H86.2463L103.733 73.4083H96.3231L92.4702 64.5283H74.0948L69.9455 73.4083H62.8324L80.0223 36.1121ZM89.8028 58.6082L82.9861 43.8081L76.1694 58.6082H89.8028Z" fill="white"/>
<path d="M106.103 36.4077H120.625C133.073 36.4077 141.372 44.3998 141.372 54.7598C141.372 65.1199 132.777 73.112 120.625 73.112H106.103V36.4077ZM120.625 67.4879C128.924 67.4879 134.259 62.1599 134.259 55.0559C134.259 47.9518 128.924 42.6238 120.625 42.6238H112.92V67.4879H120.625Z" fill="white"/>
<path d="M144.337 36.4077H173.382V42.3278H151.153V52.3918H171.011V58.3119H151.153V73.408H144.337V36.4077Z" fill="white"/>
<path d="M185.237 36.1121H191.461L208.651 73.4083H201.537L197.685 64.5283H179.309L175.16 73.4083H168.047L185.237 36.1121ZM195.017 58.6082L188.201 43.8081L181.384 58.6082H195.017Z" fill="white"/>
<path d="M207.761 68.0799L211.91 63.3439C215.467 66.3039 219.616 68.0799 224.358 68.0799C228.507 68.0799 231.175 66.3039 231.175 63.6399C231.175 60.9759 229.693 59.4959 222.284 58.0159C213.985 56.2399 209.243 53.8718 209.243 47.0638C209.243 40.8477 214.874 36.4077 222.58 36.4077C227.618 36.4077 232.657 37.8877 236.806 41.1437L232.953 45.8798C229.989 43.5118 226.136 42.3278 222.284 42.0318C218.134 42.0318 215.763 44.1038 215.763 46.4718C215.763 49.4318 217.542 50.6158 224.951 52.3918C233.25 54.1678 237.399 57.1279 237.399 63.0479C237.399 69.856 231.768 74 223.469 74C218.134 74 212.207 71.928 207.761 68.0799Z" fill="white"/>
<path d="M250.736 42.3278H238.288V36.4077H270V42.3278H257.552V73.112H250.736V42.3278Z" fill="white"/>
<path d="M56.6087 8.88007L46.5318 31.0802L24.3035 22.2002L34.3803 0L56.6087 8.88007Z" fill="white"/>
<path d="M73.7981 32.8568L63.7212 55.0569L41.4929 46.1769L51.5697 24.2727L73.7981 32.8568Z" fill="white"/>
<path d="M32.3052 27.233L22.2283 49.4331L0 40.5531L10.0768 18.3529L32.3052 27.233Z" fill="white"/>
<path d="M49.4947 51.2081L39.4178 73.4083L17.1895 64.5282L27.2663 42.328L49.4947 51.2081Z" fill="white"/>
</svg>
